<?xml version="1.0" encoding="UTF-8"?>
<svg id="Layer_1" data-name="Layer 1" xmlns="http://www.w3.org/2000/svg" viewBox="0 0 156.1 90.8">
  <defs>
    <style>
      .cls-1 {
        fill: #867a77;
      }
    </style>
  </defs>
  <g>
    <path class="cls-1" d="m5.7,80.5h1.2l-4.2,10.3h-1.2l1.4-3.4L.1,80.5h1.3l2.2,5.6,2.1-5.6Z"/>
    <path class="cls-1" d="m11.1,87.6c-2,0-3.5-1.4-3.5-3.6s1.6-3.6,3.5-3.6c2,0,3.5,1.4,3.5,3.6s-1.5,3.6-3.5,3.6Zm0-1c1.2,0,2.4-.8,2.4-2.6s-1.2-2.6-2.4-2.6-2.3.8-2.3,2.6,1.1,2.6,2.3,2.6Z"/>
    <path class="cls-1" d="m22.3,87.5h-1.2v-1c-.4.7-1.3,1.1-2.2,1.1-1.6,0-2.9-1-2.9-3v-4.1h1.1v3.9c0,1.4.8,2.1,1.9,2.1,1.2,0,2-.7,2-2.2v-3.8h1.2v7h.1Z"/>
    <path class="cls-1" d="m25.5,87.5h-1.2v-7h1.2v1.1c.4-.8,1.1-1.3,2.3-1.3v1.2h-.3c-1.1,0-1.9.5-1.9,2.1v3.9h-.1Z"/>
    <path class="cls-1" d="m32.6,81.5h-.9v-1h.9v-.5c0-1.6.8-2.3,2.5-2.3v1c-1,0-1.4.4-1.4,1.3v.5h1.5v1h-1.5v6h-1.2v-6h.1Z"/>
    <path class="cls-1" d="m39.5,80.4c1.3,0,2.2.7,2.6,1.4v-1.3h1.2v7h-1.2v-1.3c-.4.7-1.3,1.4-2.6,1.4-1.9,0-3.3-1.5-3.3-3.6s1.4-3.6,3.3-3.6Zm.2,1c-1.3,0-2.4.9-2.4,2.6s1.1,2.6,2.4,2.6,2.4-1,2.4-2.6-1.1-2.6-2.4-2.6Z"/>
    <path class="cls-1" d="m47.7,87.6c-1.6,0-2.8-.9-2.8-2.2h1.2c.1.7.7,1.2,1.6,1.2s1.4-.5,1.4-1c0-1.6-4.1-.6-4.1-3.2,0-1.1,1-1.9,2.6-1.9,1.5,0,2.6.8,2.6,2.2h-1.2c-.1-.7-.6-1.2-1.5-1.2s-1.4.4-1.4,1c0,1.7,4,.7,4.1,3.2,0,1-1,1.9-2.5,1.9Z"/>
    <path class="cls-1" d="m51.8,78.1h1.2v3.4c.5-.7,1.3-1.1,2.3-1.1,1.6,0,2.8,1,2.8,3v4.1h-1.1v-3.9c0-1.4-.8-2.1-1.9-2.1-1.2,0-2,.7-2,2.2v3.9h-1.2v-9.5h-.1Z"/>
    <path class="cls-1" d="m59.8,78.6c0-.4.3-.8.8-.8.4,0,.8.3.8.8,0,.4-.3.8-.8.8s-.8-.4-.8-.8Zm.2,1.9h1.2v7h-1.2v-7Z"/>
    <path class="cls-1" d="m66.1,87.6c-2,0-3.5-1.4-3.5-3.6s1.6-3.6,3.5-3.6c2,0,3.5,1.4,3.5,3.6.1,2.2-1.5,3.6-3.5,3.6Zm0-1c1.2,0,2.4-.8,2.4-2.6s-1.2-2.6-2.4-2.6-2.3.8-2.3,2.6,1.1,2.6,2.3,2.6Z"/>
    <path class="cls-1" d="m76.3,83.5c0-1.4-.8-2.1-1.9-2.1-1.2,0-2,.7-2,2.2v3.9h-1.2v-7h1.2v1c.5-.7,1.3-1.1,2.2-1.1,1.6,0,2.8,1,2.8,3v4.1h-1.1v-4Z"/>
    <path class="cls-1" d="m82.2,80.4c1.3,0,2.2.7,2.6,1.4v-1.3h1.2v7h-1.2v-1.3c-.4.7-1.3,1.4-2.6,1.4-1.9,0-3.3-1.5-3.3-3.6s1.5-3.6,3.3-3.6Zm.2,1c-1.3,0-2.4.9-2.4,2.6s1.1,2.6,2.4,2.6,2.4-1,2.4-2.6-1.1-2.6-2.4-2.6Z"/>
    <path class="cls-1" d="m91.7,80.4c1.9,0,3.3,1.4,3.3,3.6s-1.4,3.6-3.3,3.6c-1.3,0-2.2-.6-2.6-1.4v1.3h-1.2v-9.4h1.2v3.7c.4-.8,1.4-1.4,2.6-1.4Zm-.2,1c-1.3,0-2.4,1-2.4,2.6s1.1,2.6,2.4,2.6,2.4-1,2.4-2.6-1.2-2.6-2.4-2.6Z"/>
    <path class="cls-1" d="m96.5,78.1h1.2v9.4h-1.2v-9.4Z"/>
    <path class="cls-1" d="m102.7,87.6c-2,0-3.4-1.4-3.4-3.6s1.4-3.6,3.4-3.6,3.3,1.4,3.3,3.3v.7h-5.6c.1,1.4,1.1,2.2,2.3,2.2,1,0,1.7-.5,2-1.3h1.2c-.4,1.3-1.5,2.3-3.2,2.3Zm-2.3-4.1h4.4c0-1.4-1-2.1-2.2-2.1-1.1,0-2.1.7-2.2,2.1Z"/>
    <path class="cls-1" d="m113.9,80.4c1.7,0,2.9.9,3.2,2.4h-1.2c-.2-.8-.9-1.4-2-1.4-1.3,0-2.2.9-2.2,2.6s.9,2.6,2.2,2.6c1,0,1.7-.5,2-1.4h1.2c-.4,1.4-1.5,2.4-3.2,2.4-2,0-3.4-1.4-3.4-3.6,0-2.2,1.4-3.6,3.4-3.6Z"/>
    <path class="cls-1" d="m121.5,80.4c1.3,0,2.2.7,2.6,1.4v-1.3h1.2v7h-1.2v-1.3c-.4.7-1.3,1.4-2.6,1.4-1.9,0-3.3-1.5-3.3-3.6s1.4-3.6,3.3-3.6Zm.2,1c-1.3,0-2.4.9-2.4,2.6s1.1,2.6,2.4,2.6,2.4-1,2.4-2.6-1.1-2.6-2.4-2.6Z"/>
    <path class="cls-1" d="m132.3,83.5c0-1.4-.8-2.1-1.9-2.1-1.2,0-2,.7-2,2.2v3.9h-1.2v-7h1.2v1c.5-.7,1.3-1.1,2.2-1.1,1.6,0,2.8,1,2.8,3v4.1h-1.1v-4Z"/>
    <path class="cls-1" d="m135.8,80.5l2.2,5.9,2.2-5.9h1.2l-2.7,7h-1.3l-2.7-7h1.1Z"/>
    <path class="cls-1" d="m145.4,80.4c1.3,0,2.2.7,2.6,1.4v-1.3h1.2v7h-1.2v-1.3c-.4.7-1.3,1.4-2.6,1.4-1.9,0-3.3-1.5-3.3-3.6-.1-2.2,1.4-3.6,3.3-3.6Zm.2,1c-1.3,0-2.4.9-2.4,2.6s1.1,2.6,2.4,2.6,2.4-1,2.4-2.6c-.1-1.6-1.1-2.6-2.4-2.6Z"/>
    <path class="cls-1" d="m153.5,87.6c-1.6,0-2.8-.9-2.8-2.2h1.2c.1.7.7,1.2,1.6,1.2s1.4-.5,1.4-1c0-1.6-4.1-.6-4.1-3.2,0-1.1,1-1.9,2.6-1.9,1.5,0,2.6.8,2.6,2.2h-1.2c-.1-.7-.6-1.2-1.5-1.2s-1.4.4-1.4,1c0,1.7,4,.7,4.1,3.2.1,1-.9,1.9-2.5,1.9Z"/>
  </g>
  <g>
    <path class="cls-1" d="m78.5,48.7c-1.3-1.8-2.9-3.1-4.8-4.1s-3.9-1.5-6-1.5c-1.7,0-3.3.4-4.9,1.1-1.6.7-3,1.7-4.3,3.1-1.2,1.2-2,2.6-2.6,4.1s-.9,3.2-.9,4.9.3,3.3,1,4.9c.5,1.3,1.2,2.4,2,3.5l.3.4-.1-.5c-.2-1-.4-2.1-.4-3.2,0-1.8.3-3.6,1.1-5.3,1.4-3.3,4.9-7.5,8.8-7.4,1.7,0,3.2.4,4.3,1.3,1.1.8,1.9,2,2.4,3.5h-11.1c-1,0-1.7.1-2.3.5-.6.4-1,1.2-1.6,2.4-.7,1.7-1,3.4-1,5.1,0,1.6.3,3.2.9,4.7h0c1.1.9,2.2,1.7,3.5,2.2,1.6.7,3.3,1,5.1,1,2.8,0,5.2-.7,7.3-2.2,2.1-1.5,3.7-3.6,4.7-6.3l.1-.2h-3.4c-.7,0-1.2,0-1.5.1-.5.1-.8.3-1.3.6-.5.3-1.2.8-2.6,1.6-1,.5-2.1.8-3.4.8-1.9,0-3.4-.5-4.6-1.5s-1.8-2.3-2-4h13c.8,0,1.7.1,2.5.1,1.1,0,2.1-.1,2.8-.5.8-.4,1.2-1.2,1.2-2.5,0-.8-.2-1.7-.5-2.9-.3-1.5-.9-2.7-1.7-3.8Z"/>
    <path class="cls-1" d="m102.8,44.6h0l.1.1c2.5,1.6,4.5,3.9,5.6,6.7l.2.6v-10.2h-2.8c-1.6,0-2.9,1.2-3.1,2.8Z"/>
    <path class="cls-1" d="m95.6,43.3c-3.6,0-6.9,1.5-9.3,3.8-2.4,2.4-3.8,5.6-3.8,9.2s1.5,6.8,3.8,9.2c2.4,2.4,5.7,3.8,9.3,3.8,2.7,0,5.2-.8,7.2-2.2h0c0,.9.7,1.6,1.6,1.6h4.2v-12.4c0-3.6-1.5-6.9-3.8-9.2-2.3-2.4-5.6-3.8-9.2-3.8Zm-5.2,7.8c1.3-1.3,3.1-2.2,5.1-2.2s3.8.8,5.1,2.2c1.3,1.3,2.1,3.2,2.1,5.2s-.8,3.9-2.1,5.2-3.1,2.2-5.1,2.2-3.8-.8-5.1-2.2c-1.3-1.3-2.1-3.2-2.1-5.2s.8-3.9,2.1-5.2Z"/>
    <path class="cls-1" d="m124,43.6c-3.6,0-6.9,1.5-9.3,3.8-2.4,2.4-3.8,5.6-3.8,9.2s1.5,6.8,3.8,9.2c2.4,2.4,5.7,3.8,9.3,3.8,2.7,0,5.2-.8,7.2-2.2h0c0,.9.7,1.6,1.6,1.6h4.2v-12.4c0-3.6-1.5-6.9-3.8-9.2-2.3-2.4-5.6-3.8-9.2-3.8Zm-5.1,7.8c1.3-1.3,3.1-2.2,5.1-2.2s3.8.8,5.1,2.2c1.3,1.3,2.1,3.2,2.1,5.2s-.8,3.9-2.1,5.2c-1.3,1.3-3.1,2.2-5.1,2.2s-3.8-.8-5.1-2.2c-1.3-1.3-2.1-3.2-2.1-5.2-.1-2.1.8-3.9,2.1-5.2Z"/>
    <path class="cls-1" d="m131.2,39.3v5.6h.1c2.5,1.6,4.5,3.9,5.6,6.7l.2.6v-16h-2.8c-1.7,0-3.1,1.4-3.1,3.1Z"/>
    <path class="cls-1" d="m18,36.5v14.6l.2-.6c1.1-2.6,3.1-4.7,5.6-6h.1v-4.9c0-1.7-1.4-3.1-3.1-3.1h-2.8Z"/>
    <path class="cls-1" d="m28.9,44c-6,0-11,4.9-11,11v14.4h5.8v-14.4c0-1.4.6-2.7,1.5-3.6.9-.9,2.2-1.5,3.6-1.5s2.7.6,3.6,1.5c.9.9,1.5,2.2,1.5,3.6v14.4h2.8c1.7,0,3.1-1.4,3.1-3.1v-11.3c.1-6.1-4.8-11-10.9-11Z"/>
    <path class="cls-1" d="m42.8,54.6v14.4h5.8v-14.4c0-1.4.6-2.7,1.5-3.6.9-.9,2.2-1.5,3.6-1.5h.1v-5.9h-.1c-6,.1-10.9,5-10.9,11Z"/>
    <path class="cls-1" d="m42.8,43.7v7.1l.2-.6c.9-2.3,2.6-4.2,4.7-5.5l.1-.1h-.1c-.6-.6-1.3-.9-2.2-.9h-2.7Z"/>
    <path class="cls-1" d="m150.4,61.3l-.2-.1v.2c-.2,1.2-1.2,2.1-2.4,2.1h0c-1,0-1.5-.2-1.8-.4-.5-.3-.5-.8-.7-1.3-.1-.2-.4-.5-.7-.6-.4-.2-.9-.2-1.6-.2h-3.4v.1c0,4.6,3.7,8.3,8.3,8.3,2.5,0,4.7-1.1,6.2-2.8v-.2c-.8-2-2.1-3.9-3.7-5.1Z"/>
    <path class="cls-1" d="m147.8,49h0c.7,0,1.4.3,1.8.8.7.8,1.1,1.2,1.5,1.5s.7.4,1.2.4c.7,0,1.7-.2,3.7-.2h.1v-.1c0-4.6-3.7-8.3-8.3-8.3s-8.3,3.7-8.3,8.3h0c.2,3,1.6,4.7,3.2,5.9,1.7,1.1,3.6,1.6,5.1,2.1h0c2.9.6,5.4,3.4,6.5,6.3l.1.2.1-.2c.9-1.3,1.4-2.9,1.4-4.6h0c-.3-3.8-3-5-5.6-6-1.3-.5-2.5-.8-3.5-1.4-.9-.5-1.6-1.2-1.6-2.3.2-1.4,1.2-2.4,2.6-2.4Z"/>
    <path class="cls-1" d="m14.7,63.9c-.3-.3-.8-.5-1.7-.9-1.9-.8-3.3-2.7-3.3-4.8v-8.4h3.8v-5.3h-3.8v-4.8c0-1.7-1.4-3.1-3.2-3.1h-2.8v7.9H.1v5.3h3.8v8.4c0,6.1,5,11.2,11.2,11.2h.1v-2.8h0v-1.6c-.1-.5-.1-.8-.5-1.1Z"/>
    <path class="cls-1" d="m53,24.8l.1-.2h-3.4c-.7,0-1.2,0-1.5.1-.5.1-.8.3-1.3.6s-1.2.8-2.6,1.6c-1,.5-2.1.8-3.4.8-1.9,0-3.4-.5-4.6-1.5-1.2-1-1.8-2.3-2-4h13c.8,0,1.7.1,2.5.1,1.1,0,2.1-.1,2.8-.5.8-.4,1.2-1.2,1.2-2.5,0-.8-.2-1.7-.5-2.9-.4-1.3-1-2.5-1.8-3.6h0c-1.3-1.8-2.9-3.1-4.8-4.1-1.9-1-3.9-1.5-6-1.5-1.7,0-3.3.4-4.9,1.1-1.6.7-3,1.7-4.3,3.1-1.2,1.2-2,2.6-2.6,4.1s-.9,3.2-.9,4.9.3,3.3,1,4.9c.5,1.3,1.2,2.4,2,3.5l.3.4-.1-.5c-.2-1-.4-2.1-.4-3.2,0-1.8.3-3.6,1.1-5.3,1.4-3.3,4.9-7.5,8.8-7.4,1.7,0,3.2.4,4.3,1.3,1.1.8,1.9,2,2.4,3.5h-11.1c-1,0-1.7.1-2.3.5s-1,1.2-1.6,2.4c-.7,1.7-1,3.4-1,5.1,0,1.6.3,3.2.9,4.7h0c1.1.9,2.2,1.7,3.5,2.2,1.6.7,3.3,1,5.1,1,2.8,0,5.2-.7,7.3-2.2,2.2-1.7,3.8-3.8,4.8-6.5Z"/>
    <path class="cls-1" d="m75.9,8.7h0l.1.1c2.5,1.6,4.5,3.9,5.6,6.7l.2.6V5.8h-2.8c-1.6,0-3,1.3-3.1,2.9Z"/>
    <path class="cls-1" d="m68.7,7.4c-3.6,0-6.9,1.5-9.3,3.8-2.4,2.4-3.8,5.6-3.8,9.2s1.5,6.8,3.8,9.2c2.4,2.4,5.7,3.8,9.3,3.8,2.7,0,5.2-.8,7.2-2.2h0c0,.9.7,1.6,1.6,1.6h4.2v-12.4c0-3.6-1.5-6.9-3.8-9.2-2.3-2.4-5.6-3.8-9.2-3.8Zm-5.2,7.8c1.3-1.3,3.1-2.2,5.1-2.2s3.8.8,5.1,2.2c1.3,1.3,2.1,3.2,2.1,5.2s-.8,3.9-2.1,5.2c-1.2,1.3-3,2.2-5,2.2s-3.8-.8-5.1-2.2c-1.3-1.3-2.1-3.2-2.1-5.2-.1-2.1.7-3.9,2-5.2Z"/>
    <path class="cls-1" d="m4.3,32.8c.9,0,1.6-.7,1.6-1.6h0c2.1,1.4,4.6,2.2,7.2,2.2,3.6,0,6.9-1.5,9.3-3.8,2.4-2.4,3.8-5.6,3.8-9.2s-1.5-6.9-3.8-9.2c-2.4-2.4-5.7-3.8-9.3-3.8s-6.9,1.5-9.3,3.8c-2.4,2.4-3.8,5.6-3.8,9.2v12.5h4.3v-.1Zm14-7.2c-1.3,1.3-3.1,2.2-5.1,2.2s-3.8-.8-5.1-2.2c-1.3-1.3-2.1-3.2-2.1-5.2s.8-3.9,2.1-5.2,3.1-2.2,5.1-2.2,3.8.8,5.1,2.2c1.3,1.3,2.1,3.2,2.1,5.2s-.8,3.9-2.1,5.2Z"/>
    <path class="cls-1" d="m5.9,8.8h0l.1-5.7c0-1.7-1.4-3.1-3.1-3.1H.1v16.1l.2-.6c1.1-2.8,3-5.1,5.6-6.7Z"/>
    <path class="cls-1" d="m128.6,21.3c1.7,1.1,3.6,1.6,5.1,2.1h0c2.9.6,5.4,3.4,6.5,6.3l.1.2.1-.2c.9-1.3,1.4-2.9,1.4-4.6h0c-.3-3.8-3-5-5.6-6-1.3-.5-2.5-.8-3.5-1.4-.9-.5-1.6-1.2-1.6-2.3,0-1.3,1.1-2.4,2.4-2.4h0c.7,0,1.4.3,1.8.8.7.8,1.1,1.2,1.5,1.5s.7.4,1.2.4c.7,0,1.7-.2,3.7-.2h.1v-.1c0-4.6-3.7-8.3-8.3-8.3s-8.3,3.7-8.3,8.3h0c.4,3,1.7,4.8,3.4,5.9Z"/>
    <path class="cls-1" d="m139.9,30.5h0c-.7-2-2-3.9-3.6-5.2l-.2-.1v.2c-.2,1.2-1.2,2.1-2.4,2.1h0c-1,0-1.5-.2-1.8-.4-.5-.3-.5-.8-.7-1.3-.1-.2-.4-.5-.7-.6-.4-.2-.9-.2-1.6-.2h-3.4v.1c0,4.6,3.7,8.3,8.3,8.3,2.3,0,4.5-1.1,6.1-2.9h0Z"/>
    <path class="cls-1" d="m87.1,22.2c0,6.1,5,11.2,11.2,11.2h.1v-4.4c0-.4-.1-.8-.4-1.1s-.8-.5-1.7-.9c-1.9-.8-3.3-2.7-3.3-4.8v-8.3h3.8v-5.3h-3.8V3.8c0-1.7-1.4-3.1-3.2-3.1h-2.8v7.9h-3.8v5.3h3.8l.1,8.3Z"/>
    <path class="cls-1" d="m111,33.4h0c6,0,11-4.9,11-11v-14.4h-5.8v14.4c0,1.4-.6,2.7-1.5,3.6-.9.9-2.2,1.5-3.6,1.5s-2.7-.6-3.6-1.5-1.5-2.2-1.5-3.6V8h-2.8c-1.7,0-3.1,1.4-3.1,3.1v11.3c-.1,6,4.9,11,10.9,11Z"/>
    <path class="cls-1" d="m117.1,32.3l-.1.1.1.1c.6.6,1.3.9,2.2.9h2.8v-7.1l-.2.6c-1.1,2.2-2.7,4.1-4.8,5.4Z"/>
  </g>
</svg>